<svg xmlns="http://www.w3.org/2000/svg" xmlns:xlink="http://www.w3.org/1999/xlink" width="320" zoomAndPan="magnify" viewBox="0 0 375 375" height="320" preserveAspectRatio="xMidYMid meet" version="1.0">
  <defs>
    <g />
    <clipPath id="5ce88c78b6">
      <path d="M 126.1875 61.507812 L 249 61.507812 L 249 211.507812 L 126.1875 211.507812 Z M 126.1875 61.507812 " clip-rule="nonzero" />
    </clipPath>
  </defs>
  <g clip-path="url(#5ce88c78b6)">
    <path fill="#fff" d="M 247.996094 105.140625 C 247.683594 104.46875 247.25 103.886719 246.699219 103.390625 C 246.207031 102.972656 245.679688 102.605469 245.109375 102.300781 C 244.230469 101.855469 243.414062 101.320312 242.65625 100.691406 C 241.152344 99.40625 239.921875 97.613281 238.832031 96.035156 L 238.527344 95.589844 C 237.394531 93.867188 236.136719 92.234375 234.757812 90.699219 C 233.941406 89.824219 233.046875 89.039062 232.074219 88.34375 L 231.316406 87.839844 L 230.582031 87.394531 C 230.109375 87.121094 229.601562 86.832031 229.082031 86.566406 C 227.039062 85.503906 224.902344 84.679688 222.671875 84.09375 C 221.542969 83.796875 220.398438 83.574219 219.242188 83.429688 C 218.066406 83.300781 216.894531 83.265625 215.714844 83.316406 C 213.921875 83.40625 212.136719 83.589844 210.359375 83.863281 C 209.941406 83.921875 209.527344 83.976562 209.117188 84.03125 C 208.265625 84.144531 207.148438 84.285156 206.09375 84.332031 C 205.273438 84.394531 204.464844 84.320312 203.667969 84.109375 C 203.625 84.089844 203.578125 84.070312 203.535156 84.054688 C 203.445312 84.023438 203.363281 83.984375 203.285156 83.933594 C 203.238281 83.910156 203.195312 83.882812 203.15625 83.84375 L 203.089844 83.796875 C 203.085938 83.792969 203.058594 83.773438 203.054688 83.773438 C 203.039062 83.757812 203.023438 83.746094 203.007812 83.730469 C 202.59375 83.347656 202.183594 82.976562 201.765625 82.609375 C 201.007812 81.941406 200.195312 81.265625 199.214844 80.476562 C 197.507812 79.109375 195.722656 77.785156 193.910156 76.539062 C 190.269531 74.0625 186.476562 71.835938 182.539062 69.867188 C 181.5625 69.390625 180.558594 68.914062 179.554688 68.449219 C 179.253906 68.320312 178.957031 68.1875 178.65625 68.054688 C 177.960938 67.746094 177.242188 67.429688 176.53125 67.140625 C 174.1875 66.167969 172.234375 65.425781 170.386719 64.800781 C 168.152344 64.039062 166.074219 63.421875 164.042969 62.910156 C 161.863281 62.34375 159.648438 61.945312 157.40625 61.714844 C 156.230469 61.59375 155.054688 61.578125 153.878906 61.660156 C 152.519531 61.71875 151.234375 62.0625 150.023438 62.6875 C 149.277344 63.097656 148.675781 63.664062 148.226562 64.390625 C 148.175781 64.484375 148.121094 64.582031 148.070312 64.675781 C 147.945312 64.890625 147.832031 65.109375 147.734375 65.335938 C 147.699219 65.449219 147.65625 65.558594 147.613281 65.664062 C 147.515625 65.890625 147.445312 66.125 147.398438 66.363281 C 147.070312 67.789062 147.175781 69.175781 147.722656 70.53125 C 148.71875 73.054688 150.445312 74.8125 151.984375 76.261719 C 152.152344 76.417969 152.320312 76.566406 152.488281 76.714844 C 152.253906 76.804688 152.027344 76.902344 151.804688 77.015625 C 151.132812 77.382812 150.589844 77.890625 150.167969 78.527344 C 149.441406 79.714844 149.273438 81.300781 149.703125 82.886719 C 150.109375 84.226562 150.742188 85.449219 151.601562 86.554688 C 152.976562 88.425781 154.714844 90.101562 157.234375 91.984375 C 158.328125 92.808594 159.460938 93.542969 160.429688 94.152344 C 161.554688 94.824219 162.707031 95.441406 163.859375 95.988281 C 168.496094 98.140625 173.320312 99.703125 178.339844 100.683594 C 180.820312 101.195312 183.324219 101.550781 185.851562 101.753906 C 188.269531 101.953125 190.6875 101.945312 193.105469 101.734375 C 192.507812 102.621094 192.074219 103.585938 191.808594 104.621094 C 191.511719 105.753906 191.332031 106.90625 191.269531 108.078125 C 191.222656 108.609375 191.222656 109.148438 191.222656 109.667969 L 191.222656 109.832031 C 191.234375 110.027344 191.242188 110.230469 191.25 110.429688 C 191.265625 110.8125 191.28125 111.195312 191.308594 111.558594 C 191.402344 112.902344 191.441406 113.925781 191.4375 114.878906 C 191.457031 115.921875 191.359375 116.949219 191.144531 117.96875 C 190.9375 118.90625 190.550781 119.765625 189.980469 120.539062 L 189.554688 121.085938 L 188.792969 121.835938 L 187.917969 122.503906 C 187.488281 122.78125 187.046875 123.042969 186.632812 123.289062 L 185.226562 123.953125 L 183.746094 124.519531 C 183.429688 124.632812 183.097656 124.730469 182.773438 124.828125 C 182.585938 124.882812 182.398438 124.941406 182.214844 125 C 181.714844 125.15625 181.160156 125.324219 180.605469 125.480469 C 180.371094 125.554688 180.132812 125.625 179.894531 125.695312 C 179.585938 125.789062 179.273438 125.878906 178.96875 125.976562 C 176.917969 126.605469 174.789062 127.328125 172.460938 128.191406 C 168.128906 129.804688 163.945312 131.742188 159.910156 134.003906 C 158.089844 135.027344 156.164062 136.253906 154.019531 137.753906 C 152.121094 139.132812 150.316406 140.632812 148.617188 142.253906 L 147.347656 143.488281 L 146.164062 144.800781 C 145.5625 145.453125 144.996094 146.140625 144.476562 146.859375 C 144.292969 147.097656 144.113281 147.339844 143.933594 147.574219 C 143.667969 147.902344 143.441406 148.246094 143.21875 148.578125 C 143.121094 148.726562 143.027344 148.871094 142.925781 149.019531 C 142.816406 149.183594 142.710938 149.34375 142.601562 149.503906 C 142.386719 149.816406 142.164062 150.144531 141.960938 150.476562 C 141.785156 150.773438 141.609375 151.070312 141.433594 151.367188 C 141.019531 152.058594 140.59375 152.773438 140.222656 153.507812 C 139.097656 155.566406 138.160156 157.707031 137.410156 159.933594 C 137.03125 161.027344 136.742188 162.167969 136.464844 163.269531 L 136.109375 165.03125 C 136.015625 165.496094 135.957031 165.972656 135.902344 166.429688 L 135.859375 166.773438 C 135.359375 171.28125 135.785156 175.699219 137.128906 180.03125 C 136.847656 179.847656 136.550781 179.691406 136.238281 179.558594 C 135.765625 179.378906 135.273438 179.273438 134.769531 179.234375 C 133.660156 179.167969 132.644531 179.441406 131.71875 180.054688 C 130.835938 180.636719 130.097656 181.363281 129.503906 182.238281 C 129.226562 182.613281 128.980469 183.007812 128.769531 183.421875 L 128.714844 183.519531 C 128.476562 183.945312 128.265625 184.386719 128.082031 184.839844 C 127.273438 186.667969 126.800781 188.574219 126.664062 190.566406 C 126.523438 192.558594 126.730469 194.515625 127.28125 196.433594 C 127.867188 198.398438 128.804688 200.171875 130.097656 201.765625 C 130.351562 202.0625 130.621094 202.351562 130.878906 202.628906 L 131.109375 202.878906 C 131.371094 203.140625 131.652344 203.386719 131.925781 203.628906 L 132.21875 203.882812 C 132.609375 204.191406 133.015625 204.488281 133.40625 204.773438 C 133.710938 204.972656 134.039062 205.160156 134.359375 205.335938 C 134.488281 205.410156 134.613281 205.480469 134.742188 205.554688 C 136.691406 206.570312 139.074219 206.746094 140.960938 206.015625 C 141.910156 205.664062 142.757812 205.140625 143.496094 204.449219 C 143.753906 204.21875 143.992188 203.972656 144.21875 203.710938 C 144.125 204.035156 144.070312 204.367188 144.058594 204.707031 C 144.046875 205.222656 144.144531 205.714844 144.351562 206.1875 C 144.558594 206.664062 144.851562 207.070312 145.238281 207.414062 C 146.695312 208.796875 148.585938 209.445312 150.246094 209.945312 C 152.035156 210.441406 153.855469 210.742188 155.710938 210.851562 C 157.386719 210.964844 159.15625 211.027344 161.128906 211.046875 C 163.847656 211.054688 166.597656 211.027344 169.253906 211 C 173.570312 210.957031 178.039062 210.914062 182.402344 211.023438 C 183.339844 211.046875 184.277344 211.070312 185.214844 211.097656 C 187.789062 211.167969 190.453125 211.238281 193.105469 211.242188 C 194.75 211.238281 196.664062 211.21875 198.597656 211.070312 C 199.550781 211 200.5 210.878906 201.441406 210.714844 C 202.472656 210.546875 203.476562 210.269531 204.445312 209.882812 C 205.003906 209.65625 205.53125 209.367188 206.023438 209.019531 C 206.613281 208.605469 207.105469 208.101562 207.5 207.5 C 207.550781 207.417969 207.601562 207.328125 207.648438 207.242188 C 208.039062 207.675781 208.46875 208.066406 208.933594 208.421875 C 209.972656 209.203125 211.101562 209.808594 212.324219 210.246094 C 212.824219 210.4375 213.335938 210.597656 213.855469 210.730469 L 214.144531 210.808594 C 214.316406 210.84375 214.492188 210.878906 214.664062 210.914062 C 215.09375 211.003906 215.535156 211.097656 215.972656 211.144531 C 216.28125 211.191406 216.585938 211.238281 216.898438 211.269531 L 217.8125 211.34375 C 218.4375 211.398438 219.03125 211.402344 219.660156 211.410156 C 221.003906 211.441406 222.324219 211.273438 223.617188 210.902344 C 224.460938 210.640625 225.199219 210.195312 225.824219 209.574219 C 226.1875 209.1875 226.46875 208.75 226.675781 208.265625 C 226.855469 207.800781 226.957031 207.320312 226.980469 206.824219 C 227.007812 206.007812 226.886719 205.214844 226.621094 204.441406 C 226.40625 203.792969 226.140625 203.167969 225.820312 202.5625 C 225.542969 202.023438 225.230469 201.480469 224.867188 200.910156 L 224.375 200.148438 L 223.96875 199.492188 C 221.472656 195.378906 221.433594 190.683594 221.84375 187.46875 C 221.980469 186.402344 222.171875 185.34375 222.425781 184.296875 C 222.503906 183.941406 222.605469 183.582031 222.699219 183.238281 C 222.746094 183.070312 222.792969 182.898438 222.835938 182.738281 C 222.894531 182.570312 222.945312 182.398438 223 182.226562 C 223.105469 181.882812 223.214844 181.53125 223.339844 181.230469 C 224.011719 179.402344 225.164062 177.625 226.492188 175.660156 C 226.738281 175.300781 226.984375 174.933594 227.234375 174.570312 C 228.285156 173.03125 229.371094 171.445312 230.332031 169.753906 C 231.582031 167.648438 232.570312 165.425781 233.296875 163.085938 C 234.015625 160.738281 234.40625 158.339844 234.476562 155.882812 C 234.550781 153.480469 234.378906 151.09375 233.960938 148.722656 C 233.527344 146.386719 232.855469 144.117188 231.945312 141.917969 C 231.53125 140.890625 231.070312 139.898438 230.507812 138.726562 L 230.1875 138.082031 C 229.785156 137.28125 229.371094 136.449219 228.996094 135.621094 C 228.679688 134.605469 228.683594 133.589844 229.003906 132.578125 C 229.375 131.609375 229.972656 130.808594 230.796875 130.179688 C 231.613281 129.539062 232.496094 129.011719 233.453125 128.605469 C 234.097656 128.308594 234.742188 128.078125 235.429688 127.832031 C 235.761719 127.714844 236.097656 127.59375 236.445312 127.464844 C 238.542969 126.648438 240.46875 125.542969 242.230469 124.140625 C 243.132812 123.425781 243.949219 122.621094 244.675781 121.730469 C 245.050781 121.269531 245.386719 120.78125 245.6875 120.265625 L 245.800781 120.050781 C 245.902344 119.855469 246.007812 119.65625 246.09375 119.472656 L 246.4375 118.710938 C 247.355469 116.65625 248.039062 114.523438 248.480469 112.316406 C 248.703125 111.164062 248.804688 110 248.78125 108.828125 C 248.761719 107.546875 248.5 106.316406 247.996094 105.140625 Z M 245.976562 111.910156 C 245.664062 113.960938 245.132812 115.949219 244.390625 117.886719 L 244.109375 118.617188 C 244.050781 118.769531 243.988281 118.90625 243.929688 119.042969 C 243.894531 119.121094 243.859375 119.203125 243.828125 119.273438 C 243.605469 119.707031 243.355469 120.121094 243.074219 120.523438 C 242.484375 121.34375 241.8125 122.09375 241.0625 122.769531 C 239.507812 124.160156 237.789062 125.308594 235.902344 126.203125 L 235.582031 126.347656 C 233.785156 127.144531 231.753906 128.046875 230.21875 129.527344 C 229.355469 130.324219 228.769531 131.285156 228.449219 132.414062 C 228.199219 133.542969 228.289062 134.644531 228.730469 135.714844 C 229.007812 136.832031 229.355469 137.945312 229.6875 139.023438 C 230.027344 140.109375 230.378906 141.238281 230.652344 142.351562 C 230.925781 143.421875 231.167969 144.539062 231.378906 145.671875 C 231.585938 146.949219 231.710938 148.011719 231.777344 149.015625 C 231.953125 151.242188 231.90625 153.457031 231.636719 155.671875 C 231.398438 157.851562 230.898438 159.964844 230.136719 162.019531 C 229.339844 164.058594 228.339844 165.988281 227.136719 167.816406 C 226.164062 169.328125 225.109375 170.777344 223.992188 172.3125 C 223.734375 172.664062 223.476562 173.019531 223.214844 173.378906 C 221.785156 175.355469 220.421875 177.328125 219.453125 179.757812 C 219.289062 180.152344 219.144531 180.550781 219.023438 180.960938 C 218.964844 181.148438 218.90625 181.339844 218.835938 181.539062 C 218.785156 181.714844 218.734375 181.894531 218.683594 182.070312 C 218.570312 182.476562 218.449219 182.894531 218.351562 183.3125 C 218.054688 184.511719 217.824219 185.722656 217.664062 186.949219 C 217.34375 189.460938 217.386719 191.964844 217.800781 194.464844 C 218.246094 197.03125 219.167969 199.414062 220.5625 201.613281 L 221.089844 202.414062 L 221.5625 203.085938 C 221.835938 203.480469 222.105469 203.914062 222.386719 204.410156 C 222.898438 205.304688 223.238281 206.21875 223.234375 206.691406 C 223.253906 206.835938 223.222656 206.96875 223.136719 207.085938 C 222.929688 207.292969 222.691406 207.441406 222.417969 207.535156 C 221.488281 207.859375 220.535156 208.035156 219.550781 208.066406 C 217.089844 208.207031 215.011719 208.03125 213.203125 207.527344 C 210.972656 206.953125 209.238281 205.816406 208.316406 204.328125 C 208.300781 204.308594 208.289062 204.28125 208.273438 204.257812 C 208.257812 204.078125 208.234375 203.90625 208.214844 203.730469 C 208.199219 203.640625 208.1875 203.550781 208.175781 203.445312 C 208.035156 202.714844 207.808594 202.011719 207.503906 201.332031 C 207.480469 200.167969 207.292969 199.035156 206.941406 197.929688 C 206.222656 195.644531 205.121094 193.566406 203.632812 191.695312 C 203.578125 191.625 203.515625 191.617188 203.445312 191.664062 C 203.371094 191.710938 203.355469 191.773438 203.398438 191.847656 C 203.929688 192.863281 204.386719 193.910156 204.761719 194.992188 C 205.144531 196.046875 205.425781 197.128906 205.605469 198.238281 L 205.617188 198.3125 C 205.625 198.359375 205.632812 198.40625 205.640625 198.453125 C 205.398438 198.195312 205.144531 197.957031 204.875 197.730469 C 204.007812 197.03125 203.050781 196.496094 202 196.125 C 200.949219 195.753906 199.867188 195.570312 198.753906 195.566406 C 197.878906 195.542969 197.011719 195.597656 196.148438 195.730469 C 196.589844 193.921875 196.726562 192.09375 196.550781 190.242188 C 196.226562 187.3125 195.332031 184.570312 193.871094 182.007812 C 192.46875 179.53125 190.714844 177.332031 188.613281 175.40625 C 187.578125 174.457031 186.464844 173.613281 185.265625 172.878906 C 184.132812 172.226562 182.78125 171.539062 181.347656 171.421875 C 181.257812 171.410156 181.207031 171.449219 181.199219 171.539062 C 181.183594 171.625 181.21875 171.675781 181.300781 171.699219 C 182.652344 172.070312 183.796875 172.886719 184.738281 173.636719 C 185.769531 174.480469 186.710938 175.410156 187.566406 176.429688 C 189.296875 178.433594 190.699219 180.644531 191.773438 183.0625 C 192.847656 185.398438 193.433594 187.855469 193.53125 190.425781 C 193.601562 192.914062 193.039062 195.25 191.839844 197.433594 C 191.671875 197.746094 191.601562 198.078125 191.636719 198.433594 C 191.667969 198.785156 191.800781 199.101562 192.023438 199.375 C 192.25 199.648438 192.53125 199.839844 192.871094 199.941406 C 193.210938 200.042969 193.550781 200.042969 193.890625 199.9375 L 194.023438 199.898438 C 194.289062 199.8125 194.707031 199.707031 195.109375 199.621094 C 195.480469 199.546875 195.878906 199.46875 196.277344 199.425781 C 197.039062 199.320312 197.800781 199.296875 198.566406 199.347656 C 200.113281 199.460938 201.402344 199.945312 202.292969 200.75 C 202.773438 201.191406 203.164062 201.707031 203.464844 202.289062 C 203.78125 202.875 204.003906 203.496094 204.132812 204.148438 C 204.136719 204.214844 204.144531 204.285156 204.152344 204.355469 C 204.164062 204.421875 204.171875 204.488281 204.171875 204.527344 C 204.167969 204.585938 204.164062 204.640625 204.167969 204.699219 C 204.167969 204.742188 204.167969 204.785156 204.160156 204.828125 C 204.152344 204.84375 204.152344 204.855469 204.148438 204.871094 C 204.140625 204.976562 204.109375 205.074219 204.054688 205.164062 C 204.039062 205.191406 204.023438 205.222656 204.015625 205.25 C 203.695312 205.609375 203.308594 205.867188 202.855469 206.023438 C 202.160156 206.292969 201.445312 206.480469 200.710938 206.589844 C 199.886719 206.722656 199.0625 206.820312 198.261719 206.878906 C 196.519531 207.023438 194.746094 207.058594 193.089844 207.078125 C 191.382812 207.09375 189.632812 207.082031 187.941406 207.070312 C 186.144531 207.0625 184.28125 207.050781 182.441406 207.070312 C 179.101562 207.09375 175.582031 207.226562 171.683594 207.476562 L 161.039062 208.269531 C 159.109375 208.414062 157.390625 208.5 155.785156 208.527344 C 154.066406 208.59375 152.359375 208.5 150.65625 208.242188 C 148.996094 207.925781 147.265625 207.539062 145.957031 206.59375 C 145.285156 206.132812 144.890625 205.496094 144.773438 204.691406 C 144.714844 203.828125 144.871094 203.007812 145.238281 202.226562 C 145.265625 202.164062 145.253906 202.109375 145.199219 202.0625 C 145.144531 202.019531 145.085938 202.019531 145.03125 202.058594 C 143.464844 203.152344 141.886719 203.78125 140.441406 203.882812 C 140.324219 203.898438 140.203125 203.90625 140.085938 203.898438 C 140.019531 203.898438 139.957031 203.894531 139.894531 203.898438 L 139.839844 203.898438 C 139.679688 203.90625 139.523438 203.890625 139.367188 203.859375 C 139.179688 203.828125 138.996094 203.804688 138.84375 203.792969 L 138.089844 203.570312 L 137.367188 203.238281 C 137.054688 203.046875 136.746094 202.859375 136.457031 202.667969 C 136.328125 202.558594 136.199219 202.457031 136.070312 202.355469 C 135.910156 202.226562 135.75 202.097656 135.59375 201.960938 L 134.746094 201.144531 L 133.980469 200.269531 C 133.894531 200.15625 133.8125 200.046875 133.726562 199.9375 C 133.574219 199.738281 133.425781 199.542969 133.28125 199.339844 C 132.402344 198.082031 131.75 196.714844 131.324219 195.242188 C 130.488281 192.421875 130.46875 189.203125 131.273438 185.9375 C 131.625 184.519531 132.117188 182.921875 133.113281 181.777344 C 133.59375 181.203125 134.191406 180.8125 134.90625 180.601562 C 135.71875 180.375 136.535156 180.355469 137.359375 180.546875 C 137.363281 180.546875 137.367188 180.542969 137.375 180.546875 C 137.378906 180.546875 137.382812 180.550781 137.390625 180.550781 C 137.398438 180.550781 137.410156 180.546875 137.417969 180.546875 C 137.425781 180.546875 137.425781 180.539062 137.433594 180.539062 C 137.449219 180.53125 137.464844 180.519531 137.480469 180.507812 C 137.488281 180.5 137.5 180.492188 137.503906 180.480469 C 137.507812 180.480469 137.511719 180.476562 137.515625 180.472656 C 137.519531 180.457031 137.523438 180.4375 137.523438 180.414062 C 137.523438 180.40625 137.53125 180.402344 137.527344 180.394531 C 136.929688 175.550781 137.097656 171.097656 138.03125 167.15625 C 138.085938 166.9375 138.136719 166.722656 138.183594 166.503906 C 138.253906 166.195312 138.324219 165.875 138.421875 165.566406 L 138.886719 164.003906 L 139.019531 163.632812 C 139.339844 162.746094 139.671875 161.828125 140.070312 160.957031 C 140.9375 158.949219 141.953125 157.023438 143.117188 155.175781 C 144.277344 153.324219 145.539062 151.546875 146.902344 149.84375 C 147.101562 149.609375 147.300781 149.375 147.496094 149.140625 C 147.976562 148.542969 148.488281 147.972656 149.023438 147.429688 L 150.140625 146.273438 L 151.34375 145.183594 C 154.609375 142.273438 158.160156 139.769531 161.992188 137.664062 L 163.425781 136.855469 L 164.894531 136.085938 C 165.730469 135.632812 166.613281 135.210938 167.46875 134.804688 L 167.855469 134.617188 C 168.46875 134.3125 169.109375 134.023438 169.722656 133.746094 C 170.105469 133.574219 170.488281 133.398438 170.863281 133.222656 L 173.929688 131.925781 C 176.007812 131.066406 178.148438 130.265625 180.152344 129.53125 C 180.5 129.40625 180.847656 129.28125 181.199219 129.160156 L 182.148438 128.832031 C 182.535156 128.695312 182.929688 128.558594 183.34375 128.394531 L 183.789062 128.226562 C 184.1875 128.078125 184.597656 127.921875 185.007812 127.746094 L 186.648438 126.988281 C 187.042969 126.773438 187.433594 126.550781 187.824219 126.328125 L 188.246094 126.089844 C 188.746094 125.753906 189.273438 125.394531 189.789062 125.003906 L 190.871094 124.050781 L 191.1875 123.6875 C 191.382812 123.472656 191.609375 123.21875 191.835938 122.933594 L 192.375 122.105469 C 193.050781 120.964844 193.472656 119.734375 193.644531 118.417969 C 193.789062 117.199219 193.789062 115.976562 193.648438 114.757812 C 193.527344 113.742188 193.355469 112.6875 193.097656 111.339844 C 193.03125 110.996094 192.976562 110.664062 192.925781 110.332031 C 192.890625 110.121094 192.855469 109.910156 192.820312 109.710938 C 192.796875 109.507812 192.773438 109.304688 192.746094 109.105469 C 192.703125 108.765625 192.660156 108.414062 192.640625 108.066406 C 192.542969 106.972656 192.550781 105.878906 192.667969 104.785156 C 192.75 103.675781 193.039062 102.625 193.535156 101.628906 C 193.539062 101.621094 193.535156 101.609375 193.539062 101.597656 C 193.542969 101.585938 193.550781 101.578125 193.550781 101.566406 C 193.550781 101.558594 193.542969 101.554688 193.542969 101.550781 C 193.539062 101.53125 193.535156 101.515625 193.527344 101.503906 C 193.519531 101.488281 193.511719 101.476562 193.5 101.464844 C 193.496094 101.460938 193.492188 101.453125 193.488281 101.449219 C 193.484375 101.445312 193.46875 101.445312 193.457031 101.441406 C 193.449219 101.4375 193.441406 101.425781 193.429688 101.425781 C 190.835938 101.074219 188.4375 100.648438 186.09375 100.117188 C 183.773438 99.617188 181.429688 99.019531 178.933594 98.289062 C 173.394531 96.644531 169.027344 95.027344 165.1875 93.203125 C 164.136719 92.714844 163.066406 92.15625 162.007812 91.535156 C 160.949219 90.917969 159.921875 90.261719 158.949219 89.589844 C 156.960938 88.28125 155.152344 86.753906 153.53125 85.007812 C 152.765625 84.1875 152.160156 83.257812 151.714844 82.226562 C 151.277344 81.269531 151.25 80.304688 151.625 79.324219 C 151.835938 78.867188 152.144531 78.480469 152.539062 78.167969 C 152.851562 77.941406 153.183594 77.753906 153.535156 77.601562 C 153.804688 77.824219 154.082031 78.042969 154.355469 78.257812 L 154.566406 78.421875 C 154.917969 78.6875 155.273438 78.945312 155.628906 79.203125 L 157.660156 80.640625 C 160.992188 82.992188 164.4375 85.425781 167.957031 87.640625 C 170.992188 89.523438 175.03125 91.933594 179.394531 93.878906 C 181.378906 94.769531 183.410156 95.539062 185.488281 96.191406 C 187.566406 96.839844 189.6875 97.296875 191.847656 97.5625 C 191.933594 97.566406 191.984375 97.53125 192.003906 97.449219 C 192.023438 97.359375 191.984375 97.308594 191.898438 97.285156 C 189.800781 96.832031 187.761719 96.195312 185.78125 95.371094 C 183.796875 94.578125 181.871094 93.671875 179.992188 92.65625 C 176.246094 90.597656 172.640625 88.316406 169.179688 85.8125 C 165.789062 83.414062 162.53125 80.878906 158.929688 78.054688 L 156.433594 76.082031 C 155.460938 75.273438 154.753906 74.632812 154.132812 74.015625 C 153.421875 73.320312 152.761719 72.574219 152.160156 71.78125 C 151.609375 71.054688 151.175781 70.261719 150.859375 69.40625 C 150.589844 68.683594 150.550781 67.953125 150.742188 67.210938 C 150.761719 67.113281 150.796875 67.023438 150.839844 66.9375 C 150.875 66.871094 150.902344 66.804688 150.925781 66.738281 C 150.96875 66.640625 151.019531 66.550781 151.078125 66.460938 C 151.121094 66.394531 151.164062 66.328125 151.195312 66.269531 C 151.335938 66.0625 151.523438 65.910156 151.753906 65.8125 C 152.507812 65.484375 153.292969 65.3125 154.117188 65.300781 C 155.09375 65.253906 156.066406 65.292969 157.035156 65.417969 C 159.078125 65.667969 161.089844 66.078125 163.070312 66.644531 C 164.972656 67.164062 166.933594 67.792969 169.0625 68.570312 C 173.035156 70 176.910156 71.660156 180.6875 73.550781 C 184.449219 75.460938 188.0625 77.613281 191.535156 80.011719 C 193.304688 81.214844 195.015625 82.46875 196.621094 83.734375 C 197.347656 84.316406 198.203125 85.007812 199.042969 85.734375 C 199.449219 86.082031 199.839844 86.4375 200.207031 86.769531 L 200.679688 87.144531 C 200.847656 87.285156 201.027344 87.402344 201.21875 87.5 C 201.570312 87.707031 201.941406 87.875 202.328125 88.007812 C 203.617188 88.382812 204.933594 88.523438 206.277344 88.425781 C 207.425781 88.363281 208.492188 88.230469 209.667969 88.070312 L 210.585938 87.9375 C 212.4375 87.671875 214.183594 87.417969 215.902344 87.3125 C 216.878906 87.246094 217.855469 87.253906 218.828125 87.339844 C 219.808594 87.445312 220.777344 87.613281 221.738281 87.84375 C 223.703125 88.316406 225.589844 88.996094 227.402344 89.890625 C 227.792969 90.078125 228.21875 90.300781 228.742188 90.59375 L 229.390625 90.964844 L 229.992188 91.351562 C 230.785156 91.894531 231.519531 92.507812 232.195312 93.191406 C 233.574219 94.566406 234.785156 96.199219 236.066406 97.925781 L 236.214844 98.125 C 237.441406 99.773438 238.835938 101.640625 240.675781 103.097656 C 241.15625 103.480469 241.65625 103.824219 242.179688 104.136719 C 242.574219 104.375 242.980469 104.582031 243.335938 104.765625 L 243.671875 104.9375 C 244.0625 105.128906 244.429688 105.351562 244.777344 105.613281 C 245.050781 105.832031 245.269531 106.097656 245.433594 106.40625 C 245.816406 107.21875 246.03125 108.074219 246.089844 108.972656 C 246.15625 109.953125 246.121094 110.933594 245.976562 111.910156 Z M 245.976562 111.910156 " fill-opacity="1" fill-rule="nonzero" />
  </g>
  <path fill="#fff" d="M 228.796875 103.644531 C 228.796875 104.15625 228.699219 104.648438 228.503906 105.121094 C 228.308594 105.59375 228.027344 106.011719 227.667969 106.371094 C 227.304688 106.734375 226.886719 107.011719 226.414062 107.210938 C 225.941406 107.40625 225.449219 107.503906 224.9375 107.503906 C 224.425781 107.503906 223.933594 107.40625 223.460938 107.210938 C 222.988281 107.011719 222.570312 106.734375 222.207031 106.371094 C 221.847656 106.011719 221.566406 105.59375 221.371094 105.121094 C 221.175781 104.648438 221.078125 104.15625 221.078125 103.644531 C 221.078125 103.132812 221.175781 102.640625 221.371094 102.164062 C 221.566406 101.691406 221.847656 101.277344 222.207031 100.914062 C 222.570312 100.550781 222.988281 100.273438 223.460938 100.078125 C 223.933594 99.882812 224.425781 99.78125 224.9375 99.78125 C 225.449219 99.78125 225.941406 99.882812 226.414062 100.078125 C 226.886719 100.273438 227.304688 100.550781 227.667969 100.914062 C 228.027344 101.277344 228.308594 101.691406 228.503906 102.164062 C 228.699219 102.640625 228.796875 103.132812 228.796875 103.644531 Z M 228.796875 103.644531 " fill-opacity="1" fill-rule="nonzero" />
  <g fill="#fff" fill-opacity="1">
    <g transform="translate(67.611521, 252.259539)">
      <g>
        <path d="M 24.546875 -29.5 C 25.554688 -29.5 26.25 -29.382812 26.625 -29.15625 C 27 -28.9375 27.1875 -28.539062 27.1875 -27.96875 L 27.1875 -18.59375 C 27.1875 -18.039062 26.9375 -17.644531 26.4375 -17.40625 C 25.945312 -17.175781 25.125 -17.0625 23.96875 -17.0625 C 23.195312 -17.0625 22.601562 -17.113281 22.1875 -17.21875 C 21.78125 -17.320312 21.492188 -17.476562 21.328125 -17.6875 C 21.171875 -17.90625 21.09375 -18.207031 21.09375 -18.59375 C 21.09375 -20.21875 20.644531 -21.519531 19.75 -22.5 C 18.863281 -23.476562 17.601562 -23.96875 15.96875 -23.96875 C 13.695312 -23.96875 11.976562 -23.148438 10.8125 -21.515625 C 9.644531 -19.890625 9.0625 -17.550781 9.0625 -14.5 C 9.0625 -11.46875 9.679688 -9.125 10.921875 -7.46875 C 12.160156 -5.820312 13.921875 -5 16.203125 -5 C 17.617188 -5 18.976562 -5.191406 20.28125 -5.578125 C 21.582031 -5.960938 23 -6.546875 24.53125 -7.328125 C 24.789062 -7.453125 25.035156 -7.515625 25.265625 -7.515625 C 26.023438 -7.515625 26.660156 -6.835938 27.171875 -5.484375 C 27.390625 -4.867188 27.5 -4.316406 27.5 -3.828125 C 27.5 -3.003906 27.128906 -2.410156 26.390625 -2.046875 C 22.898438 -0.328125 19.425781 0.53125 15.96875 0.53125 C 13.289062 0.53125 10.9375 -0.078125 8.90625 -1.296875 C 6.875 -2.515625 5.300781 -4.257812 4.1875 -6.53125 C 3.070312 -8.800781 2.515625 -11.457031 2.515625 -14.5 C 2.515625 -17.519531 3.054688 -20.164062 4.140625 -22.4375 C 5.234375 -24.707031 6.742188 -26.453125 8.671875 -27.671875 C 10.597656 -28.890625 12.785156 -29.5 15.234375 -29.5 C 18.078125 -29.5 20.191406 -28.476562 21.578125 -26.4375 L 21.578125 -27.96875 C 21.578125 -28.519531 21.8125 -28.910156 22.28125 -29.140625 C 22.75 -29.378906 23.503906 -29.5 24.546875 -29.5 Z M 24.546875 -29.5 " />
      </g>
    </g>
  </g>
  <g fill="#fff" fill-opacity="1">
    <g transform="translate(97.580277, 252.259539)">
      <g>
        <path d="M 14.984375 -29.5 C 17.648438 -29.5 20 -28.894531 22.03125 -27.6875 C 24.070312 -26.476562 25.648438 -24.738281 26.765625 -22.46875 C 27.878906 -20.195312 28.4375 -17.539062 28.4375 -14.5 C 28.4375 -11.457031 27.878906 -8.800781 26.765625 -6.53125 C 25.648438 -4.257812 24.070312 -2.515625 22.03125 -1.296875 C 20 -0.078125 17.648438 0.53125 14.984375 0.53125 C 12.316406 0.53125 9.960938 -0.078125 7.921875 -1.296875 C 5.890625 -2.515625 4.316406 -4.257812 3.203125 -6.53125 C 2.085938 -8.800781 1.53125 -11.457031 1.53125 -14.5 C 1.53125 -17.539062 2.085938 -20.195312 3.203125 -22.46875 C 4.316406 -24.738281 5.890625 -26.476562 7.921875 -27.6875 C 9.960938 -28.894531 12.316406 -29.5 14.984375 -29.5 Z M 14.984375 -23.96875 C 12.722656 -23.96875 11.003906 -23.148438 9.828125 -21.515625 C 8.660156 -19.890625 8.078125 -17.550781 8.078125 -14.5 C 8.078125 -11.4375 8.660156 -9.085938 9.828125 -7.453125 C 11.003906 -5.816406 12.722656 -5 14.984375 -5 C 17.242188 -5 18.957031 -5.816406 20.125 -7.453125 C 21.300781 -9.085938 21.890625 -11.4375 21.890625 -14.5 C 21.890625 -17.550781 21.300781 -19.890625 20.125 -21.515625 C 18.957031 -23.148438 17.242188 -23.96875 14.984375 -23.96875 Z M 14.984375 -23.96875 " />
      </g>
    </g>
  </g>
  <g fill="#fff" fill-opacity="1">
    <g transform="translate(127.549033, 252.259539)">
      <g>
        <path d="M 25.265625 -28.96875 C 25.828125 -28.96875 26.226562 -28.84375 26.46875 -28.59375 C 26.71875 -28.351562 26.84375 -27.953125 26.84375 -27.390625 L 26.84375 -20.015625 C 26.84375 -19.460938 26.609375 -19.066406 26.140625 -18.828125 C 25.671875 -18.585938 24.914062 -18.46875 23.875 -18.46875 C 22.863281 -18.46875 22.171875 -18.582031 21.796875 -18.8125 C 21.421875 -19.039062 21.234375 -19.441406 21.234375 -20.015625 L 21.234375 -23.71875 L 11.46875 -23.71875 L 11.46875 -17.546875 L 17.421875 -17.546875 C 17.992188 -17.546875 18.394531 -17.359375 18.625 -16.984375 C 18.851562 -16.609375 18.96875 -15.914062 18.96875 -14.90625 C 18.96875 -13.90625 18.851562 -13.21875 18.625 -12.84375 C 18.394531 -12.476562 17.992188 -12.296875 17.421875 -12.296875 L 11.46875 -12.296875 L 11.46875 -5.25 L 21.484375 -5.25 L 21.484375 -10.171875 C 21.484375 -10.722656 21.722656 -11.117188 22.203125 -11.359375 C 22.679688 -11.597656 23.460938 -11.71875 24.546875 -11.71875 C 25.617188 -11.71875 26.347656 -11.601562 26.734375 -11.375 C 27.128906 -11.144531 27.328125 -10.742188 27.328125 -10.171875 L 27.328125 -1.59375 C 27.328125 -1.03125 27.207031 -0.625 26.96875 -0.375 C 26.726562 -0.125 26.320312 0 25.75 0 L 3 0 C 2.613281 0 2.3125 -0.0625 2.09375 -0.1875 C 1.882812 -0.320312 1.726562 -0.566406 1.625 -0.921875 C 1.519531 -1.285156 1.46875 -1.804688 1.46875 -2.484375 C 1.46875 -3.171875 1.519531 -3.691406 1.625 -4.046875 C 1.726562 -4.410156 1.882812 -4.660156 2.09375 -4.796875 C 2.3125 -4.929688 2.613281 -5 3 -5 L 5.375 -5 L 5.375 -23.96875 L 3 -23.96875 C 2.613281 -23.96875 2.3125 -24.03125 2.09375 -24.15625 C 1.882812 -24.289062 1.726562 -24.535156 1.625 -24.890625 C 1.519531 -25.253906 1.46875 -25.773438 1.46875 -26.453125 C 1.46875 -27.140625 1.519531 -27.660156 1.625 -28.015625 C 1.726562 -28.378906 1.882812 -28.628906 2.09375 -28.765625 C 2.3125 -28.898438 2.613281 -28.96875 3 -28.96875 Z M 25.265625 -28.96875 " />
      </g>
    </g>
  </g>
  <g fill="#fff" fill-opacity="1">
    <g transform="translate(157.517789, 252.259539)">
      <g>
        <path d="M 17.984375 -28.96875 C 18.378906 -28.96875 18.679688 -28.898438 18.890625 -28.765625 C 19.097656 -28.628906 19.253906 -28.378906 19.359375 -28.015625 C 19.472656 -27.660156 19.53125 -27.140625 19.53125 -26.453125 C 19.53125 -25.773438 19.472656 -25.253906 19.359375 -24.890625 C 19.253906 -24.535156 19.097656 -24.289062 18.890625 -24.15625 C 18.679688 -24.03125 18.378906 -23.96875 17.984375 -23.96875 L 12.671875 -23.96875 L 12.671875 -5.25 L 21.234375 -5.25 L 21.234375 -12.859375 C 21.234375 -13.410156 21.476562 -13.804688 21.96875 -14.046875 C 22.46875 -14.285156 23.296875 -14.40625 24.453125 -14.40625 C 25.222656 -14.40625 25.8125 -14.347656 26.21875 -14.234375 C 26.632812 -14.128906 26.921875 -13.972656 27.078125 -13.765625 C 27.242188 -13.554688 27.328125 -13.253906 27.328125 -12.859375 L 27.328125 -1.59375 C 27.328125 -1.03125 27.207031 -0.625 26.96875 -0.375 C 26.726562 -0.125 26.320312 0 25.75 0 L 3 0 C 2.613281 0 2.3125 -0.0625 2.09375 -0.1875 C 1.882812 -0.320312 1.726562 -0.566406 1.625 -0.921875 C 1.519531 -1.285156 1.46875 -1.804688 1.46875 -2.484375 C 1.46875 -3.171875 1.519531 -3.691406 1.625 -4.046875 C 1.726562 -4.410156 1.882812 -4.660156 2.09375 -4.796875 C 2.3125 -4.929688 2.613281 -5 3 -5 L 6.5625 -5 L 6.5625 -23.96875 L 3 -23.96875 C 2.613281 -23.96875 2.3125 -24.03125 2.09375 -24.15625 C 1.882812 -24.289062 1.726562 -24.535156 1.625 -24.890625 C 1.519531 -25.253906 1.46875 -25.773438 1.46875 -26.453125 C 1.46875 -27.140625 1.519531 -27.660156 1.625 -28.015625 C 1.726562 -28.378906 1.882812 -28.628906 2.09375 -28.765625 C 2.3125 -28.898438 2.613281 -28.96875 3 -28.96875 Z M 17.984375 -28.96875 " />
      </g>
    </g>
  </g>
  <g fill="#fff" fill-opacity="1">
    <g transform="translate(187.486545, 252.259539)">
      <g>
        <path d="M 27.21875 -28.96875 C 27.601562 -28.96875 27.898438 -28.898438 28.109375 -28.765625 C 28.328125 -28.628906 28.488281 -28.378906 28.59375 -28.015625 C 28.695312 -27.660156 28.75 -27.140625 28.75 -26.453125 C 28.75 -25.773438 28.695312 -25.253906 28.59375 -24.890625 C 28.488281 -24.535156 28.328125 -24.289062 28.109375 -24.15625 C 27.898438 -24.03125 27.601562 -23.96875 27.21875 -23.96875 L 25.828125 -23.96875 L 25.828125 -5 L 27.21875 -5 C 27.601562 -5 27.898438 -4.929688 28.109375 -4.796875 C 28.328125 -4.660156 28.488281 -4.410156 28.59375 -4.046875 C 28.695312 -3.691406 28.75 -3.171875 28.75 -2.484375 C 28.75 -1.804688 28.695312 -1.285156 28.59375 -0.921875 C 28.488281 -0.566406 28.328125 -0.320312 28.109375 -0.1875 C 27.898438 -0.0625 27.601562 0 27.21875 0 L 18.078125 0 C 17.691406 0 17.390625 -0.0625 17.171875 -0.1875 C 16.960938 -0.320312 16.804688 -0.566406 16.703125 -0.921875 C 16.597656 -1.285156 16.546875 -1.804688 16.546875 -2.484375 C 16.546875 -3.171875 16.597656 -3.691406 16.703125 -4.046875 C 16.804688 -4.410156 16.960938 -4.660156 17.171875 -4.796875 C 17.390625 -4.929688 17.691406 -5 18.078125 -5 L 19.71875 -5 L 19.71875 -12.296875 L 10.25 -12.296875 L 10.25 -5 L 11.890625 -5 C 12.273438 -5 12.570312 -4.929688 12.78125 -4.796875 C 13 -4.660156 13.160156 -4.410156 13.265625 -4.046875 C 13.367188 -3.691406 13.421875 -3.171875 13.421875 -2.484375 C 13.421875 -1.804688 13.367188 -1.285156 13.265625 -0.921875 C 13.160156 -0.566406 13 -0.320312 12.78125 -0.1875 C 12.570312 -0.0625 12.273438 0 11.890625 0 L 2.765625 0 C 2.367188 0 2.0625 -0.0625 1.84375 -0.1875 C 1.632812 -0.320312 1.476562 -0.566406 1.375 -0.921875 C 1.269531 -1.285156 1.21875 -1.804688 1.21875 -2.484375 C 1.21875 -3.171875 1.269531 -3.691406 1.375 -4.046875 C 1.476562 -4.410156 1.632812 -4.660156 1.84375 -4.796875 C 2.0625 -4.929688 2.367188 -5 2.765625 -5 L 4.15625 -5 L 4.15625 -23.96875 L 2.765625 -23.96875 C 2.367188 -23.96875 2.0625 -24.03125 1.84375 -24.15625 C 1.632812 -24.289062 1.476562 -24.535156 1.375 -24.890625 C 1.269531 -25.253906 1.21875 -25.773438 1.21875 -26.453125 C 1.21875 -27.140625 1.269531 -27.660156 1.375 -28.015625 C 1.476562 -28.378906 1.632812 -28.628906 1.84375 -28.765625 C 2.0625 -28.898438 2.367188 -28.96875 2.765625 -28.96875 L 11.890625 -28.96875 C 12.273438 -28.96875 12.570312 -28.898438 12.78125 -28.765625 C 13 -28.628906 13.160156 -28.378906 13.265625 -28.015625 C 13.367188 -27.660156 13.421875 -27.140625 13.421875 -26.453125 C 13.421875 -25.773438 13.367188 -25.253906 13.265625 -24.890625 C 13.160156 -24.535156 13 -24.289062 12.78125 -24.15625 C 12.570312 -24.03125 12.273438 -23.96875 11.890625 -23.96875 L 10.25 -23.96875 L 10.25 -17.546875 L 19.71875 -17.546875 L 19.71875 -23.96875 L 18.078125 -23.96875 C 17.691406 -23.96875 17.390625 -24.03125 17.171875 -24.15625 C 16.960938 -24.289062 16.804688 -24.535156 16.703125 -24.890625 C 16.597656 -25.253906 16.546875 -25.773438 16.546875 -26.453125 C 16.546875 -27.140625 16.597656 -27.660156 16.703125 -28.015625 C 16.804688 -28.378906 16.960938 -28.628906 17.171875 -28.765625 C 17.390625 -28.898438 17.691406 -28.96875 18.078125 -28.96875 Z M 27.21875 -28.96875 " />
      </g>
    </g>
  </g>
  <g fill="#fff" fill-opacity="1">
    <g transform="translate(217.455301, 252.259539)">
      <g>
        <path d="M 14.984375 -29.5 C 17.648438 -29.5 20 -28.894531 22.03125 -27.6875 C 24.070312 -26.476562 25.648438 -24.738281 26.765625 -22.46875 C 27.878906 -20.195312 28.4375 -17.539062 28.4375 -14.5 C 28.4375 -11.457031 27.878906 -8.800781 26.765625 -6.53125 C 25.648438 -4.257812 24.070312 -2.515625 22.03125 -1.296875 C 20 -0.078125 17.648438 0.53125 14.984375 0.53125 C 12.316406 0.53125 9.960938 -0.078125 7.921875 -1.296875 C 5.890625 -2.515625 4.316406 -4.257812 3.203125 -6.53125 C 2.085938 -8.800781 1.53125 -11.457031 1.53125 -14.5 C 1.53125 -17.539062 2.085938 -20.195312 3.203125 -22.46875 C 4.316406 -24.738281 5.890625 -26.476562 7.921875 -27.6875 C 9.960938 -28.894531 12.316406 -29.5 14.984375 -29.5 Z M 14.984375 -23.96875 C 12.722656 -23.96875 11.003906 -23.148438 9.828125 -21.515625 C 8.660156 -19.890625 8.078125 -17.550781 8.078125 -14.5 C 8.078125 -11.4375 8.660156 -9.085938 9.828125 -7.453125 C 11.003906 -5.816406 12.722656 -5 14.984375 -5 C 17.242188 -5 18.957031 -5.816406 20.125 -7.453125 C 21.300781 -9.085938 21.890625 -11.4375 21.890625 -14.5 C 21.890625 -17.550781 21.300781 -19.890625 20.125 -21.515625 C 18.957031 -23.148438 17.242188 -23.96875 14.984375 -23.96875 Z M 14.984375 -23.96875 " />
      </g>
    </g>
  </g>
  <g fill="#fff" fill-opacity="1">
    <g transform="translate(247.424058, 252.259539)">
      <g>
        <path d="M 27.21875 -28.96875 C 27.601562 -28.96875 27.898438 -28.898438 28.109375 -28.765625 C 28.328125 -28.628906 28.488281 -28.378906 28.59375 -28.015625 C 28.695312 -27.660156 28.75 -27.140625 28.75 -26.453125 C 28.75 -25.773438 28.695312 -25.253906 28.59375 -24.890625 C 28.488281 -24.535156 28.328125 -24.289062 28.109375 -24.15625 C 27.898438 -24.03125 27.601562 -23.96875 27.21875 -23.96875 L 22.671875 -23.96875 L 22.671875 -8.859375 C 22.671875 -5.734375 21.789062 -3.382812 20.03125 -1.8125 C 18.28125 -0.25 15.703125 0.53125 12.296875 0.53125 C 8.492188 0.53125 5.332031 -0.660156 2.8125 -3.046875 C 2.550781 -3.304688 2.421875 -3.710938 2.421875 -4.265625 L 2.421875 -12.171875 C 2.421875 -12.734375 2.664062 -13.128906 3.15625 -13.359375 C 3.65625 -13.597656 4.484375 -13.71875 5.640625 -13.71875 C 6.398438 -13.71875 6.988281 -13.664062 7.40625 -13.5625 C 7.820312 -13.457031 8.109375 -13.296875 8.265625 -13.078125 C 8.429688 -12.867188 8.515625 -12.566406 8.515625 -12.171875 L 8.515625 -5.828125 C 9.640625 -5.273438 10.988281 -5 12.5625 -5 C 13.90625 -5 14.910156 -5.351562 15.578125 -6.0625 C 16.242188 -6.769531 16.578125 -7.863281 16.578125 -9.34375 L 16.578125 -23.96875 L 9.109375 -23.96875 C 8.710938 -23.96875 8.410156 -24.03125 8.203125 -24.15625 C 7.992188 -24.289062 7.832031 -24.535156 7.71875 -24.890625 C 7.613281 -25.253906 7.5625 -25.773438 7.5625 -26.453125 C 7.5625 -27.140625 7.613281 -27.660156 7.71875 -28.015625 C 7.832031 -28.378906 7.992188 -28.628906 8.203125 -28.765625 C 8.410156 -28.898438 8.710938 -28.96875 9.109375 -28.96875 Z M 27.21875 -28.96875 " />
      </g>
    </g>
  </g>
  <g fill="#fff" fill-opacity="1">
    <g transform="translate(277.392814, 252.259539)">
      <g>
        <path d="M 22.359375 -29.5 C 23.398438 -29.5 24.140625 -29.378906 24.578125 -29.140625 C 25.015625 -28.910156 25.234375 -28.519531 25.234375 -27.96875 L 25.234375 -21.28125 C 25.234375 -20.726562 25.054688 -20.332031 24.703125 -20.09375 C 24.359375 -19.863281 23.785156 -19.75 22.984375 -19.75 C 22.453125 -19.75 22.03125 -19.8125 21.71875 -19.9375 C 21.414062 -20.070312 21.171875 -20.269531 20.984375 -20.53125 C 20.222656 -21.726562 19.238281 -22.65625 18.03125 -23.3125 C 16.832031 -23.976562 15.441406 -24.3125 13.859375 -24.3125 C 12.671875 -24.3125 11.738281 -24.007812 11.0625 -23.40625 C 10.394531 -22.800781 10.0625 -22.019531 10.0625 -21.0625 C 10.0625 -20.59375 10.207031 -20.207031 10.5 -19.90625 C 10.789062 -19.601562 11.210938 -19.335938 11.765625 -19.109375 C 12.484375 -18.835938 13.710938 -18.550781 15.453125 -18.25 C 17.140625 -17.925781 18.519531 -17.617188 19.59375 -17.328125 C 20.664062 -17.046875 21.675781 -16.613281 22.625 -16.03125 C 25.226562 -14.457031 26.53125 -11.910156 26.53125 -8.390625 C 26.53125 -6.609375 26.148438 -5.046875 25.390625 -3.703125 C 24.640625 -2.367188 23.503906 -1.328125 21.984375 -0.578125 C 20.472656 0.160156 18.613281 0.53125 16.40625 0.53125 C 13.6875 0.53125 11.382812 -0.285156 9.5 -1.921875 L 9.5 -1 C 9.5 -0.445312 9.296875 -0.0546875 8.890625 0.171875 C 8.492188 0.410156 7.785156 0.53125 6.765625 0.53125 C 5.722656 0.53125 4.976562 0.410156 4.53125 0.171875 C 4.09375 -0.0546875 3.875 -0.445312 3.875 -1 L 3.875 -9.15625 C 3.875 -9.707031 4.050781 -10.097656 4.40625 -10.328125 C 4.757812 -10.566406 5.332031 -10.6875 6.125 -10.6875 C 6.695312 -10.6875 7.148438 -10.613281 7.484375 -10.46875 C 7.816406 -10.320312 8.070312 -10.070312 8.25 -9.71875 C 9.125 -8.039062 10.171875 -6.773438 11.390625 -5.921875 C 12.617188 -5.078125 14.046875 -4.65625 15.671875 -4.65625 C 17.097656 -4.65625 18.1875 -4.945312 18.9375 -5.53125 C 19.6875 -6.125 20.0625 -6.941406 20.0625 -7.984375 C 20.0625 -8.628906 19.894531 -9.175781 19.5625 -9.625 C 19.226562 -10.070312 18.742188 -10.453125 18.109375 -10.765625 C 17.585938 -11.023438 17.015625 -11.234375 16.390625 -11.390625 C 15.765625 -11.554688 14.84375 -11.769531 13.625 -12.03125 C 12.21875 -12.320312 11.054688 -12.585938 10.140625 -12.828125 C 9.234375 -13.078125 8.382812 -13.414062 7.59375 -13.84375 C 6.351562 -14.488281 5.382812 -15.351562 4.6875 -16.4375 C 3.988281 -17.519531 3.640625 -18.921875 3.640625 -20.640625 C 3.640625 -22.367188 4.035156 -23.90625 4.828125 -25.25 C 5.628906 -26.59375 6.75 -27.632812 8.1875 -28.375 C 9.625 -29.125 11.269531 -29.5 13.125 -29.5 C 14.425781 -29.5 15.628906 -29.285156 16.734375 -28.859375 C 17.847656 -28.441406 18.8125 -27.84375 19.625 -27.0625 L 19.625 -27.96875 C 19.625 -28.519531 19.820312 -28.910156 20.21875 -29.140625 C 20.613281 -29.378906 21.328125 -29.5 22.359375 -29.5 Z M 22.359375 -29.5 " />
      </g>
    </g>
  </g>
  <g fill="#fff" fill-opacity="1">
    <g transform="translate(110.730766, 276.884011)">
      <g>
        <path d="M 0.703125 0 L 6.875 0 L 6.875 -0.5 L 1.226562 -0.5 L 1.226562 -8.957031 L 0.703125 -8.957031 Z M 0.703125 0 " />
      </g>
    </g>
  </g>
  <g fill="#fff" fill-opacity="1">
    <g transform="translate(122.880932, 276.884011)">
      <g>
        <path d="M 0.101562 0 L 0.664062 0 L 1.75 -2.324219 L 7.472656 -2.324219 L 8.558594 0 L 9.121094 0 L 4.929688 -8.957031 L 4.292969 -8.957031 Z M 1.96875 -2.824219 L 4.597656 -8.46875 L 4.625 -8.46875 L 7.257812 -2.824219 Z M 1.96875 -2.824219 " />
      </g>
    </g>
  </g>
  <g fill="#fff" fill-opacity="1">
    <g transform="translate(137.291728, 276.884011)">
      <g>
        <path d="M 0.703125 0 L 1.226562 0 L 1.226562 -3.742188 L 5.671875 -3.742188 C 7.539062 -3.742188 8.699219 -4.789062 8.699219 -6.347656 C 8.699219 -7.90625 7.539062 -8.957031 5.671875 -8.957031 L 0.703125 -8.957031 Z M 1.226562 -4.242188 L 1.226562 -8.457031 L 5.660156 -8.457031 C 7.21875 -8.457031 8.175781 -7.613281 8.175781 -6.347656 C 8.175781 -5.085938 7.21875 -4.242188 5.660156 -4.242188 Z M 1.226562 -4.242188 " />
      </g>
    </g>
  </g>
  <g fill="#fff" fill-opacity="1">
    <g transform="translate(151.408766, 276.884011)">
      <g>
        <path d="M 0.703125 0 L 1.226562 0 L 1.226562 -8.957031 L 0.703125 -8.957031 Z M 0.703125 0 " />
      </g>
    </g>
  </g>
  <g fill="#fff" fill-opacity="1">
    <g transform="translate(158.526811, 276.884011)">
      <g>
        <path d="M 0.703125 0 L 1.226562 0 L 1.226562 -8.40625 L 1.253906 -8.40625 L 7.855469 0 L 8.625 0 L 8.625 -8.957031 L 8.101562 -8.957031 L 8.101562 -0.550781 L 8.074219 -0.550781 L 1.46875 -8.957031 L 0.703125 -8.957031 Z M 0.703125 0 " />
      </g>
    </g>
  </g>
  <g fill="#fff" fill-opacity="1">
    <g transform="translate(173.039778, 276.884011)">
      <g>
        <path d="M 5.863281 0.320312 C 9.121094 0.320312 11.269531 -1.597656 11.269531 -4.472656 C 11.269531 -7.359375 9.121094 -9.273438 5.863281 -9.273438 C 2.617188 -9.273438 0.484375 -7.359375 0.484375 -4.472656 C 0.484375 -1.597656 2.617188 0.320312 5.863281 0.320312 Z M 5.863281 -0.179688 C 2.9375 -0.179688 1.007812 -1.890625 1.007812 -4.472656 C 1.007812 -7.066406 2.9375 -8.777344 5.863281 -8.777344 C 8.800781 -8.777344 10.730469 -7.066406 10.730469 -4.472656 C 10.730469 -1.890625 8.800781 -0.179688 5.863281 -0.179688 Z M 5.863281 -0.179688 " />
      </g>
    </g>
  </g>
  <g fill="#fff" fill-opacity="1">
    <g transform="translate(189.966637, 276.884011)">
      <g>
        <path d="M 4.648438 0.320312 C 7.230469 0.320312 8.738281 -1.074219 8.738281 -3.449219 L 8.738281 -8.957031 L 8.214844 -8.957031 L 8.214844 -3.449219 C 8.214844 -1.378906 6.910156 -0.191406 4.664062 -0.191406 C 2.402344 -0.191406 1.097656 -1.390625 1.097656 -3.449219 L 1.097656 -8.957031 L 0.574219 -8.957031 L 0.574219 -3.449219 C 0.574219 -1.074219 2.082031 0.320312 4.648438 0.320312 Z M 4.648438 0.320312 " />
      </g>
    </g>
  </g>
  <g fill="#fff" fill-opacity="1">
    <g transform="translate(204.466834, 276.884011)">
      <g>
        <path d="M 0.957031 0.128906 C 1.226562 0.128906 1.40625 -0.0625 1.40625 -0.320312 C 1.40625 -0.574219 1.226562 -0.765625 0.957031 -0.765625 C 0.675781 -0.765625 0.5 -0.574219 0.5 -0.320312 C 0.5 -0.0507812 0.675781 0.128906 0.957031 0.128906 Z M 0.957031 0.128906 " />
      </g>
    </g>
  </g>
  <g fill="#fff" fill-opacity="1">
    <g transform="translate(211.572103, 276.884011)">
      <g>
        <path d="M 3.898438 0 L 4.421875 0 L 4.421875 -8.457031 L 8.214844 -8.457031 L 8.214844 -8.957031 L 0.101562 -8.957031 L 0.101562 -8.457031 L 3.898438 -8.457031 Z M 3.898438 0 " />
      </g>
    </g>
  </g>
  <g fill="#fff" fill-opacity="1">
    <g transform="translate(225.063329, 276.884011)">
      <g>
        <path d="M 0.703125 0 L 8.152344 0 L 8.152344 -0.5 L 1.226562 -0.5 L 1.226562 -4.40625 L 7.511719 -4.40625 L 7.511719 -4.90625 L 1.226562 -4.90625 L 1.226562 -8.457031 L 8.023438 -8.457031 L 8.023438 -8.957031 L 0.703125 -8.957031 Z M 0.703125 0 " />
      </g>
    </g>
  </g>
  <g fill="#fff" fill-opacity="1">
    <g transform="translate(238.682269, 276.884011)">
      <g>
        <path d="M 5.722656 0.320312 C 8.242188 0.320312 10.167969 -1.136719 10.679688 -3.4375 L 10.183594 -3.578125 C 9.722656 -1.496094 7.984375 -0.179688 5.722656 -0.179688 C 2.835938 -0.179688 1.007812 -1.851562 1.007812 -4.472656 C 1.007812 -7.101562 2.683594 -8.777344 5.367188 -8.777344 C 7.269531 -8.777344 8.800781 -7.679688 9.273438 -5.929688 L 9.773438 -6.082031 C 9.238281 -8.035156 7.511719 -9.273438 5.367188 -9.273438 C 2.363281 -9.273438 0.484375 -7.410156 0.484375 -4.472656 C 0.484375 -1.546875 2.515625 0.320312 5.722656 0.320312 Z M 5.722656 0.320312 " />
      </g>
    </g>
  </g>
  <g fill="#fff" fill-opacity="1">
    <g transform="translate(254.919446, 276.884011)">
      <g>
        <path d="M 0.703125 0 L 1.226562 0 L 1.226562 -4.421875 L 8.101562 -4.421875 L 8.101562 0 L 8.625 0 L 8.625 -8.957031 L 8.101562 -8.957031 L 8.101562 -4.917969 L 1.226562 -4.917969 L 1.226562 -8.957031 L 0.703125 -8.957031 Z M 0.703125 0 " />
      </g>
    </g>
  </g>
</svg>